<svg xmlns="http://www.w3.org/2000/svg" xmlns:xlink="http://www.w3.org/1999/xlink" style="height: 0; position: absolute">
<symbol id="wikicon-interactivescreen" viewBox="0 0 1514 1024">
    <path
        d="M0 0l0 801.824757L1424.200278 801.824757l0-801.824757L0 0zM1334.475661 712.100139 88.300417 712.100139 88.300417 89.724618l1246.175243 0L1334.475661 712.100139z">
    </path>
    <path d="M554.391321 890.125174 392.515293 1024 1073.257391 1024 911.381363 890.125174Z"></path>
</symbol>
<symbol id="wikicon-data" viewBox="0 0 1024 1024">
    <path
        d="M512 0c-215.808 0-448 65.056-448 208l0 608c0 142.88 232.192 208 448 208s448-65.12 448-208l0-608c0-142.944-232.256-208-448-208zM896 816c0 79.488-171.936 144-384 144-212.096 0-384-64.512-384-144l0-119.552c66.112 68.128 225.6 103.552 384 103.552s317.888-35.424 384-103.552l0 119.552zM896 624l-0.128 0c0 0.32 0.128 0.672 0.128 0.992 0 79.008-171.936 143.008-384 143.008s-384-64-384-143.008c0-0.32 0.128-0.672 0.128-0.992l-0.128 0 0-119.552c66.112 68.128 225.6 103.552 384 103.552s317.888-35.424 384-103.552l0 119.552zM896 432l-0.128 0c0 0.32 0.128 0.672 0.128 0.992 0 79.008-171.936 143.008-384 143.008s-384-64-384-143.008c0-0.32 0.128-0.672 0.128-0.992l-0.128 0 0-109.952c83.872 63.904 237.6 93.952 384 93.952s300.128-30.048 384-93.952l0 109.952zM512 352c-212.096 0-384-64.512-384-144 0-79.552 171.904-144 384-144 212.064 0 384 64.448 384 144 0 79.488-171.936 144-384 144zM768 832c0-17.664 14.336-32 32-32s32 14.336 32 32c0 17.664-14.336 32-32 32s-32-14.336-32-32zM768 640c0-17.664 14.336-32 32-32s32 14.336 32 32c0 17.664-14.336 32-32 32s-32-14.336-32-32zM768 448c0-17.664 14.336-32 32-32s32 14.336 32 32c0 17.664-14.336 32-32 32s-32-14.336-32-32z"></path>
</symbol>
<symbol id="wikicon-userbehavior" viewBox="0 0 1024 1024">
    <path
        d="M634.180074 948.890976c-0.511642 0-1.023284 0-1.534926 0-9.209553-0.511642-17.702808-5.116419-23.22854-12.484061L502.688118 790.793644l-60.373738 51.778155c-12.893375 11.051464-32.233437 9.516538-43.284901-3.376836-11.051464-12.893375-9.516538-32.233437 3.376836-43.284901l85.546517-73.267113c6.446687-5.525732 15.04227-8.18627 23.535525-7.162986 8.493255 1.023284 16.167882 5.423404 21.284301 12.381733l104.067952 141.929449 273.626062-302.482662c11.358449-12.58639 30.800839-13.507345 43.387229-2.148896 12.58639 11.358449 13.507345 30.800839 2.148896 43.387229L656.9993 938.760468C651.166583 945.207155 642.877985 948.890976 634.180074 948.890976zM943.92805 739.322474c-0.511642 0-1.023284 0-1.432597 0-16.884181-0.818627-29.982212-15.144599-29.163585-32.131108l4.40012-92.811832L804.659139 614.379534c-16.986509 0-30.698511-13.712002-30.698511-30.698511s13.712002-30.698511 30.698511-30.698511l145.101629 0c8.390926 0 16.372539 3.479165 22.205256 9.516538 5.832717 6.037374 8.80024 14.223643 8.493255 22.61457L974.524233 710.158889C973.705606 726.531428 960.198261 739.322474 943.92805 739.322474zM422.360348 518.804837c-59.248126 0-115.017088-23.126212-156.869391-64.978515-41.852303-41.852303-64.978515-97.621265-64.978515-156.869391s23.126212-115.017088 64.978515-156.869391c41.852303-41.852303 97.621265-64.978515 156.869391-64.978515 59.248126 0 115.017088 23.126212 156.869391 64.978515 41.852303 41.852303 64.978515 97.621265 64.978515 156.869391S621.082043 411.974018 579.229739 453.826322C537.275107 495.678625 481.608474 518.804837 422.360348 518.804837zM422.360348 136.506046c-88.51404 0-160.450884 71.936844-160.450884 160.450884S333.846308 457.407815 422.360348 457.407815s160.450884-71.936844 160.450884-160.450884S510.77206 136.506046 422.360348 136.506046zM135.636255 901.103627c-16.986509 0-30.698511-13.712002-30.698511-30.698511 0-84.830219 33.052064-164.544019 93.016488-224.406116 59.964425-59.964425 139.678225-93.016488 224.406116-93.016488 43.591886 0 85.853503 8.697911 125.659239 25.889078 38.373139 16.577196 72.653143 40.215049 101.919057 70.29959 11.870091 12.177076 11.563106 31.619466-0.61397 43.387229-12.177076 11.870091-31.619466 11.563106-43.387229-0.61397-48.605976-50.038573-113.789148-77.564905-183.577096-77.564905-68.355351 0-132.719896 26.605376-181.018887 75.006695-48.401319 48.401319-75.006695 112.663536-75.006695 181.018887C166.334766 887.391626 152.520436 901.103627 135.636255 901.103627z"
        ></path>
</symbol>
<symbol id="wikicon-chukong" viewBox="0 0 1024 1024">
    <path
        d="M727.04 281.941333a17.066667 17.066667 0 0 0 17.066667-17.066666v-17.066667a286.208 286.208 0 0 1-29.184 371.370667 17.066667 17.066667 0 0 0 0 24.234666 17.066667 17.066667 0 0 0 24.234666 0 320.682667 320.682667 0 0 0 25.429334-425.472h26.453333a17.066667 17.066667 0 0 0 0-34.133333H727.04a17.066667 17.066667 0 0 0-17.066667 17.066667v64a17.066667 17.066667 0 0 0 17.066667 17.066666zM314.197333 631.466667v-64.512a17.066667 17.066667 0 0 0-34.133333 0v17.066666a286.208 286.208 0 0 1 29.013333-371.541333 17.066667 17.066667 0 0 0-24.234666-24.234667A320.682667 320.682667 0 0 0 259.413333 614.4h-26.282666a17.066667 17.066667 0 1 0 0 34.133333h64a17.066667 17.066667 0 0 0 17.066666-17.066666z"
        ></path>
    <path
        d="M733.866667 691.882667a60.586667 60.586667 0 0 0-27.136 6.485333 61.44 61.44 0 0 0-61.269334-59.392 60.416 60.416 0 0 0-27.136 6.314667v-38.570667a218.112 218.112 0 1 0-211.114666 0v150.869333a62.634667 62.634667 0 0 0-75.776-22.698666 60.757333 60.757333 0 0 0-27.648 85.333333l49.322666 85.333333a38.4 38.4 0 0 0 33.28 19.285334h370.346667a38.4 38.4 0 0 0 37.546667-37.376v-134.314667A61.269333 61.269333 0 0 0 733.866667 691.882667zM328.021333 415.914667a183.978667 183.978667 0 1 1 290.133334 150.698666v-148.821333a61.269333 61.269333 0 1 0-122.538667 0v33.109333a60.586667 60.586667 0 0 0-27.306667-6.314666 61.269333 61.269333 0 0 0-61.269333 61.269333v60.586667a182.442667 182.442667 0 0 1-79.018667-150.528zM760.149333 887.466667a4.266667 4.266667 0 0 1-4.266666 4.266666h-370.346667a3.925333 3.925333 0 0 1-3.584-2.218666l-49.493333-85.333334a26.282667 26.282667 0 0 1-2.218667-21.504 25.770667 25.770667 0 0 1 14.336-16.042666 25.088 25.088 0 0 1 9.898667-2.048 29.525333 29.525333 0 0 1 25.088 15.189333l29.013333 50.176a17.066667 17.066667 0 0 0 31.914667-8.533333V505.856a27.306667 27.306667 0 0 1 54.442666 0v268.117333a17.066667 17.066667 0 1 0 34.133334 0V417.792a27.136 27.136 0 1 1 54.272 0V699.733333a17.066667 17.066667 0 0 0 34.133333 0 27.136 27.136 0 1 1 54.272 0v52.906667a17.066667 17.066667 0 1 0 34.133333 0 27.136 27.136 0 1 1 54.272 0z"
        ></path>
</symbol>
<symbol id="wikicon-ts-relationship" viewBox="0 0 1025 1024">
    <path
        d="M288.446495 384.0005a31.999975 31.999975 0 0 0 0 63.99995 63.99995 63.99995 0 0 1 63.99995 63.99995 31.999975 31.999975 0 0 0 63.99995 0 127.9999 127.9999 0 0 0-127.9999-127.9999z"
        ></path>
    <path
        d="M816.446083 0.0008a207.999838 207.999838 0 0 0-199.839844 265.119793L512.44632 330.560542a287.999775 287.999775 0 1 0-15.999987 379.199703L541.886297 736.000225a31.999975 31.999975 0 1 0 32.959974-54.879957l-38.719969-23.199982A284.959777 284.959777 0 0 0 546.366294 384.0005l97.439923-60.799953A207.999838 207.999838 0 1 0 816.446083 0.0008zM288.446495 736.000225a223.999825 223.999825 0 1 1 223.999825-223.999825 223.999825 223.999825 0 0 1-223.999825 223.999825z m527.999588-383.9997a143.999888 143.999888 0 1 1 143.999887-143.999888 143.999888 143.999888 0 0 1-143.999887 143.999888zM832.44607 640.0003a191.99985 191.99985 0 1 0 191.99985 191.99985 191.99985 191.99985 0 0 0-191.99985-191.99985z m0 319.99975a127.9999 127.9999 0 1 1 127.9999-127.9999 127.9999 127.9999 0 0 1-127.9999 127.9999z"
        ></path>
</symbol>
<symbol id="wikicon-layers" viewBox="0 0 1025 1024">
    <path
        d="M512 614.4a25.7024 25.7024 0 0 1-9.9328-1.9968l-486.4-204.8a25.6512 25.6512 0 0 1 0-47.2064l486.4-204.8a25.7024 25.7024 0 0 1 19.8656 0l486.4 204.8a25.6512 25.6512 0 0 1 0 47.2064l-486.4 204.8A25.7024 25.7024 0 0 1 512 614.4zM91.5456 384L512 560.9984 932.4544 384 512 207.0016 91.5456 384z"
        fill=""></path>
    <path
        d="M512 768a25.7024 25.7024 0 0 1-9.9328-1.9968l-486.4-204.8a25.6 25.6 0 0 1 19.8656-47.2064L512 714.5984l476.4672-200.6016a25.6 25.6 0 1 1 19.8656 47.2064l-486.4 204.8A25.7024 25.7024 0 0 1 512 768z"
        fill=""></path>
    <path
        d="M512 921.6a25.7024 25.7024 0 0 1-9.9328-1.9968l-486.4-204.8a25.6 25.6 0 0 1 19.8656-47.2064L512 868.1984l476.4672-200.6016a25.6 25.6 0 1 1 19.8656 47.2064l-486.4 204.8A25.7024 25.7024 0 0 1 512 921.6z"
        fill=""></path>
</symbol>
<symbol id="wikicon-Directory-tree" viewBox="0 0 1024 1024">
    <path
        d="M213.312 682.688v170.624h469.312V768H1024v256h-341.312l-0.064-85.376H128v-256h85.312zM1024 384v256h-341.312l-0.064-85.376h-341.12V469.376h341.12V384H1024z m-85.312 85.312H768v85.376h170.688V469.312zM1024 0v256h-341.312l-0.064-85.376H213.312v170.688H128v-256h554.624V0H1024z m-85.312 85.312H768v85.376h170.688V85.312z m-170.688 768v85.376h170.688v-85.376H768z m-768-512h341.312v341.376H0V341.312z m85.312 85.376v170.624H256V426.688H85.312z"
        ></path>
</symbol>
<symbol id="wikicon-behavior_line" viewBox="0 0 1024 1024">
    <path
        d="M832 112c-70.7 0-128 57.3-128 128 0 39.2 17.6 74.2 45.3 97.7l-121 271.6c-5.7-0.8-11.4-1.2-17.3-1.2-5.3 0-10.5 0.3-15.6 0.9l-99.6-223.5c27.8-23.5 45.5-58.6 45.5-97.8 0-70.7-57.3-128-128-128s-128 57.3-128 128c0 39.2 17.7 74.4 45.5 97.8L209.8 657c-5.7-0.8-11.6-1.2-17.5-1.2-70.7 0-128 57.3-128 128s57.3 128 128 128 128-57.3 128-128c0-38.9-17.4-73.8-44.8-97.3l121.2-271.9c5.5 0.7 11 1.1 16.7 1.1s11.2-0.4 16.7-1.1l99.3 222.9c-28.3 23.5-46.3 58.9-46.3 98.5 0 70.7 57.3 128 128 128s128-57.3 128-128c0-39-17.5-74-45-97.5L815 367c5.5 0.7 11.2 1.1 16.9 1.1 70.7 0 128-57.3 128-128S902.7 112 832 112zM192 840c-30.9 0-56-25.1-56-56s25.1-56 56-56 56 25.1 56 56-25.1 56-56 56z m221.1-496.2c-30.9 0-56-25.1-56-56s25.1-56 56-56 56 25.1 56 56-25.1 56-56 56z m197.8 448.4c-30.9 0-56-25.1-56-56s25.1-56 56-56 56 25.1 56 56-25.1 56-56 56zM832 296.1c-30.9 0-56-25.1-56-56s25.1-56 56-56 56 25.1 56 56-25.1 56-56 56z">
    </path>
</symbol>
<symbol id="wikicon-react" viewBox="0 0 1024 1024">
    <path
        d="M836.8 353.6c-11.2-3.2-20.8-6.4-32-9.6 1.6-8 3.2-14.4 4.8-22.4 24-118.4 8-214.4-46.4-246.4-52.8-30.4-139.2 1.6-225.6 76.8-8 8-17.6 14.4-25.6 22.4-4.8-4.8-11.2-9.6-16-16-91.2-81.6-182.4-115.2-236.8-83.2-52.8 30.4-68.8 120-46.4 233.6 1.6 11.2 4.8 22.4 8 33.6-12.8 3.2-25.6 8-36.8 11.2C76.8 392 0 451.2 0 510.4c0 62.4 81.6 124.8 192 163.2 9.6 3.2 17.6 6.4 27.2 8-3.2 12.8-6.4 24-8 36.8-20.8 110.4-4.8 198.4 48 228.8 54.4 32 145.6 0 233.6-78.4 6.4-6.4 14.4-12.8 20.8-19.2 8 8 17.6 16 27.2 24 84.8 73.6 169.6 104 222.4 73.6 54.4-32 72-126.4 48-241.6-1.6-8-3.2-17.6-6.4-27.2 6.4-1.6 12.8-3.2 19.2-6.4C940.8 636.8 1024 574.4 1024 510.4c0-59.2-78.4-118.4-187.2-156.8zM566.4 184c75.2-65.6 144-89.6 176-72 33.6 19.2 46.4 97.6 25.6 201.6-1.6 6.4-3.2 12.8-4.8 20.8-44.8-9.6-89.6-17.6-134.4-20.8-25.6-36.8-54.4-73.6-84.8-105.6 6.4-9.6 14.4-16 22.4-24zM334.4 614.4c9.6 17.6 20.8 35.2 32 51.2-32-3.2-62.4-8-92.8-14.4 8-28.8 19.2-59.2 32-89.6 9.6 19.2 19.2 36.8 28.8 52.8z m-60.8-240c28.8-6.4 59.2-11.2 91.2-16-11.2 16-20.8 33.6-30.4 51.2-9.6 17.6-19.2 33.6-28.8 52.8-12.8-30.4-22.4-59.2-32-88z m54.4 137.6c12.8-27.2 27.2-54.4 43.2-81.6s32-52.8 48-78.4c30.4-1.6 60.8-3.2 91.2-3.2s62.4 1.6 91.2 3.2c17.6 25.6 33.6 51.2 48 76.8s30.4 52.8 43.2 81.6c-12.8 27.2-27.2 54.4-43.2 81.6-16 27.2-32 52.8-48 78.4-30.4 1.6-60.8 3.2-92.8 3.2s-62.4-1.6-91.2-3.2C400 644.8 384 619.2 368 592s-25.6-52.8-40-80z m361.6 102.4l28.8-52.8c12.8 28.8 24 59.2 33.6 88-30.4 6.4-62.4 12.8-94.4 16 11.2-16 22.4-33.6 32-51.2z m28.8-153.6l-28.8-52.8c-9.6-17.6-20.8-33.6-30.4-49.6 32 4.8 62.4 9.6 91.2 16-8 30.4-19.2 59.2-32 86.4zM512 236.8c20.8 22.4 40 46.4 59.2 72-40-1.6-80-1.6-118.4 0 19.2-27.2 40-51.2 59.2-72zM280 113.6c33.6-19.2 108.8 8 187.2 78.4 4.8 4.8 9.6 9.6 16 14.4-30.4 33.6-59.2 68.8-86.4 105.6-44.8 4.8-89.6 11.2-134.4 20.8-3.2-9.6-4.8-20.8-6.4-30.4-19.2-97.6-6.4-169.6 24-188.8z m-48 528c-8-3.2-16-4.8-25.6-8-43.2-12.8-91.2-35.2-126.4-62.4-20.8-14.4-33.6-35.2-38.4-59.2 0-36.8 64-83.2 155.2-115.2 11.2-4.8 22.4-8 35.2-11.2 14.4 43.2 30.4 86.4 49.6 128-19.2 40-36.8 83.2-49.6 128zM464 836.8c-33.6 30.4-72 54.4-113.6 70.4-22.4 11.2-48 11.2-70.4 3.2-32-19.2-44.8-89.6-27.2-184 1.6-11.2 4.8-22.4 8-33.6 44.8 9.6 89.6 16 136 19.2 25.6 36.8 56 73.6 86.4 107.2-6.4 6.4-12.8 12.8-19.2 17.6z m49.6-48c-20.8-22.4-40-46.4-60.8-72 19.2 0 38.4 1.6 59.2 1.6 20.8 0 41.6 0 60.8-1.6-19.2 24-38.4 48-59.2 72zM774.4 848c-1.6 24-14.4 48-33.6 62.4-32 19.2-99.2-4.8-172.8-68.8-8-8-16-14.4-25.6-22.4 30.4-33.6 59.2-68.8 84.8-107.2 46.4-3.2 91.2-11.2 136-20.8l4.8 24c11.2 43.2 12.8 89.6 6.4 132.8z m36.8-214.4c-4.8 1.6-11.2 3.2-17.6 4.8-14.4-43.2-32-86.4-51.2-128 19.2-40 35.2-83.2 49.6-126.4 11.2 3.2 20.8 6.4 30.4 9.6 92.8 32 158.4 80 158.4 116.8 0 40-68.8 89.6-169.6 123.2zM512 603.2c51.2 0 91.2-41.6 91.2-91.2s-41.6-91.2-91.2-91.2-91.2 41.6-91.2 91.2 40 91.2 91.2 91.2z">
    </path>
</symbol>
<symbol id="wikicon-icon_mergemodel" viewBox="0 0 1024 1024">
    <path
        d="M513.89 950.72c-5.5 0-11-1.4-15.99-4.2L143.84 743c-9.85-5.73-15.99-16.17-15.99-27.64V308.58c0-11.33 6.14-21.91 15.99-27.64L497.9 77.43c9.85-5.73 22.14-5.73 31.99 0l354.06 203.52c9.85 5.73 15.99 16.17 15.99 27.64V715.5c0 11.33-6.14 21.91-15.99 27.64L529.89 946.52c-4.99 2.8-10.49 4.2-16 4.2zM191.83 697.15L513.89 882.2l322.07-185.05V326.92L513.89 141.87 191.83 326.92v370.23z m322.06-153.34c-5.37 0-10.88-1.4-15.99-4.33L244.29 393.91c-15.35-8.79-20.6-28.27-11.77-43.56 8.83-15.28 28.41-20.5 43.76-11.72l253.61 145.7c15.35 8.79 20.6 28.27 11.77 43.56-6.01 10.32-16.76 15.92-27.77 15.92z m0 291.52c-17.66 0-31.99-14.26-31.99-31.84V530.44L244.55 393.91s-0.13 0-0.13-0.13l-100.45-57.69c-15.35-8.79-20.6-28.27-11.77-43.56s28.41-20.5 43.76-11.72l354.06 203.52c9.85 5.73 15.99 16.17 15.99 27.64v291.39c-0.13 17.71-14.46 31.97-32.12 31.97z m0 115.39c-17.66 0-31.99-14.26-31.99-31.84V511.97c0-17.58 14.33-31.84 31.99-31.84s31.99 14.26 31.99 31.84v406.91c0 17.7-14.33 31.84-31.99 31.84z m0-406.91c-11 0-21.75-5.73-27.77-15.92-8.83-15.28-3.58-34.64 11.77-43.56l354.06-203.52c15.35-8.79 34.8-3.57 43.76 11.72 8.83 15.28 3.58 34.64-11.77 43.56L529.89 539.61c-4.99 2.93-10.49 4.2-16 4.2z"
        ></path>
</symbol>
<symbol id="wikicon-mix" viewBox="0 0 1024 1024">
    <path
        d="M887.893333 896H981.333333L640 128l-128 287.573333L384 128 42.666667 896h92.8L384 337.706667l81.28 182.613333L298.666667 896h426.666666l-167.04-375.68L640 337.706667z m-293.76-85.333333h-164.906666L512 625.28z">
    </path>
</symbol>
<symbol id="wikicon-model-line" viewBox="0 0 1024 1024">
    <path
        d="M436 128H168a40 40 0 0 0-40 40v268a40 40 0 0 0 40 40h268a40 40 0 0 0 40-40V168a40 40 0 0 0-40-40z m-32 276H200V200h204z m32 144H168a40 40 0 0 0-40 40v268a40 40 0 0 0 40 40h268a40 40 0 0 0 40-40V588a40 40 0 0 0-40-40z m-32 276H200V620h204z m452-696H588a40 40 0 0 0-40 40v268a40 40 0 0 0 40 40h268a40 40 0 0 0 40-40V168a40 40 0 0 0-40-40z m-32 276H620V200h204z m32 144H588a40 40 0 0 0-40 40v268a40 40 0 0 0 40 40h268a40 40 0 0 0 40-40V588a40 40 0 0 0-40-40z m-32 276H620V620h204z">
    </path>
</symbol></svg>