<svg width="64" height="64" viewBox="0 0 64 64" fill="none" xmlns="http://www.w3.org/2000/svg">
<path d="M49.5973 63.999L14.4027 63.999C13.0757 63.999 12 62.9466 12 61.6483L12 2.35096C12 1.05268 13.0757 0.000225067 14.4027 0.000225067L49.5973 0.000225067C50.9243 0.000225067 52 1.05268 52 2.35096L52 61.6483C52 62.9466 50.9243 63.999 49.5973 63.999Z" fill="#666666"/>
<mask id="mask0_66_91155" style="mask-type:alpha" maskUnits="userSpaceOnUse" x="12" y="0" width="40" height="64">
<path d="M49.5973 0.0012207H14.4027C13.0757 0.0012207 12 1.05368 12 2.35196V61.6493C12 62.9476 13.0757 64 14.4027 64H49.5973C50.9243 64 52 62.9476 52 61.6493V2.35196C52 1.05368 50.9243 0.0012207 49.5973 0.0012207Z" fill="white"/>
</mask>
<g mask="url(#mask0_66_91155)">
<path d="M12 63.999H22.8124V55.7714C22.8124 55.1223 22.2745 54.5961 21.611 54.5961H12L12 63.999Z" fill="url(#paint0_linear_66_91155)"/>
<path d="M12 9.40454L21.611 9.40454C22.2745 9.40454 22.8124 8.87831 22.8124 8.22917V0.00159454L12 0.00159454L12 9.40454Z" fill="url(#paint1_linear_66_91155)"/>
<path d="M41.5195 63.999H51.9999V54.5961H42.7209C42.0574 54.5961 41.5195 55.1223 41.5195 55.7714V63.999Z" fill="url(#paint2_linear_66_91155)"/>
<path d="M42.3889 9.40454L51.9999 9.40454V0.00159454L41.1875 0.00159454V8.22917C41.1875 8.87831 41.7254 9.40454 42.3889 9.40454Z" fill="url(#paint3_linear_66_91155)"/>
<path d="M23.0044 50.0709C23.0044 51.6282 21.7141 52.8906 20.1223 52.8906C18.5306 52.8906 17.2402 51.6282 17.2402 50.0709V44.0043C17.2402 42.447 18.5306 41.1845 20.1223 41.1845C21.7141 41.1845 23.0044 42.447 23.0044 44.0043V50.0709Z" fill="#C4C4C4"/>
<path d="M23.0044 19.9957C23.0044 21.553 21.7141 22.8154 20.1223 22.8154C18.5306 22.8154 17.2402 21.553 17.2402 19.9957V13.9291C17.2402 12.3718 18.5306 11.1094 20.1223 11.1094C21.7141 11.1094 23.0044 12.3718 23.0044 13.9291V19.9957Z" fill="#C4C4C4"/>
<path d="M46.7603 50.0709C46.7603 51.6282 45.4699 52.8906 43.8782 52.8906C42.2865 52.8906 40.9961 51.6282 40.9961 50.0709V44.0043C40.9961 42.447 42.2865 41.1845 43.8782 41.1845C45.4699 41.1845 46.7603 42.447 46.7603 44.0043V50.0709Z" fill="#C4C4C4"/>
<path d="M50.234 49.0454H38.1602V44.0409H50.234V49.0454Z" fill="#666666"/>
<path d="M42.1849 45.0417C42.7405 45.0417 43.191 45.4898 43.191 46.0426C43.191 46.5953 42.7405 47.0435 42.1849 47.0435C41.6292 47.0435 41.1787 46.5953 41.1787 46.0426C41.1787 45.4898 41.6292 45.0417 42.1849 45.0417Z" fill="#C4C4C4"/>
<path d="M46.2093 45.0417C46.765 45.0417 47.2154 45.4898 47.2154 46.0426C47.2154 46.5953 46.765 47.0435 46.2093 47.0435C45.6536 47.0435 45.2031 46.5953 45.2031 46.0426C45.2031 45.4898 45.6536 45.0417 46.2093 45.0417Z" fill="#C4C4C4"/>
<path d="M46.7603 19.9957C46.7603 21.553 45.4699 22.8154 43.8782 22.8154C42.2865 22.8154 40.9961 21.553 40.9961 19.9957V13.9291C40.9961 12.3718 42.2865 11.1094 43.8782 11.1094C45.4699 11.1094 46.7603 12.3718 46.7603 13.9291V19.9957Z" fill="#C4C4C4"/>
<path d="M32.124 20.0194L32.124 36.0154" stroke="white" stroke-width="2"/>
<path d="M31.1175 36.5152H31.6175V36.0152V28.5172H32.6298V36.0152V36.5152H33.1298H38.9603L32.1236 43.3083L25.287 36.5152H31.1175Z" fill="white" stroke="white"/>
<path d="M23.0682 16.0156H17.0312V14.0138H23.0682V16.0156Z" fill="#666666"/>
<path d="M23.0682 20.0193H17.0312V18.0175H23.0682V20.0193Z" fill="#666666"/>
<path d="M47.2148 16.0156H40.6748V14.0138H47.2148V16.0156Z" fill="#666666"/>
<path d="M47.2148 20.0193H40.6748V18.0175H47.2148V20.0193Z" fill="#666666"/>
</g>
<defs>
<linearGradient id="paint0_linear_66_91155" x1="14.4027" y1="54.5958" x2="14.4027" y2="63.9987" gradientUnits="userSpaceOnUse">
<stop stop-color="#61CF87"/>
<stop offset="0.0001" stop-color="#61CF87"/>
<stop offset="0.244318" stop-color="#2FEC70"/>
<stop offset="0.734457" stop-color="#30FE77"/>
<stop offset="1" stop-color="#61CF87"/>
<stop offset="1" stop-color="#61CF87"/>
</linearGradient>
<linearGradient id="paint1_linear_66_91155" x1="14.4027" y1="0.00130756" x2="14.4027" y2="9.40425" gradientUnits="userSpaceOnUse">
<stop stop-color="#61CF87"/>
<stop offset="0.0001" stop-color="#61CF87"/>
<stop offset="0.244318" stop-color="#2FEC70"/>
<stop offset="0.734457" stop-color="#30FE77"/>
<stop offset="1" stop-color="#61CF87"/>
<stop offset="1" stop-color="#61CF87"/>
</linearGradient>
<linearGradient id="paint2_linear_66_91155" x1="43.8485" y1="54.5958" x2="43.8485" y2="63.9987" gradientUnits="userSpaceOnUse">
<stop stop-color="#61CF87"/>
<stop offset="0.0001" stop-color="#61CF87"/>
<stop offset="0.244318" stop-color="#2FEC70"/>
<stop offset="0.734457" stop-color="#30FE77"/>
<stop offset="1" stop-color="#61CF87"/>
<stop offset="1" stop-color="#61CF87"/>
</linearGradient>
<linearGradient id="paint3_linear_66_91155" x1="43.5902" y1="0.00130756" x2="43.5902" y2="9.40425" gradientUnits="userSpaceOnUse">
<stop stop-color="#61CF87"/>
<stop offset="0.0001" stop-color="#61CF87"/>
<stop offset="0.244318" stop-color="#2FEC70"/>
<stop offset="0.734457" stop-color="#30FE77"/>
<stop offset="1" stop-color="#61CF87"/>
<stop offset="1" stop-color="#61CF87"/>
</linearGradient>
</defs>
</svg>
