<svg width="42" height="20" viewBox="0 0 42 20" fill="none" xmlns="http://www.w3.org/2000/svg">
<path fill-rule="evenodd" clip-rule="evenodd" d="M15.4357 4.63746L15.5175 4.84255L15.4766 5.30117C15.4766 5.30117 15.3223 5.301 15.2701 5.1614C15.2178 5.02179 15.1734 4.67249 15.1734 4.67249C15.1734 4.67249 14.8488 4.30896 14.826 4.09915C14.8031 3.88935 15.0416 4.01773 15.0416 4.01773L15.3248 4.28996L15.4357 4.63746Z" fill="#C09F86"/>
<path fill-rule="evenodd" clip-rule="evenodd" d="M14.9294 4.41185V4.8113L14.7754 5.37838C14.7754 5.37838 14.5087 5.45563 14.5405 5.03741C14.5724 4.61919 14.6042 4.36885 14.6042 4.36885L14.25 3.96854L14.4096 3.71973L14.9101 3.93573L14.9294 4.41185Z" fill="#B3947F"/>
<path fill-rule="evenodd" clip-rule="evenodd" d="M15.6705 4.9289C15.5235 4.87205 15.4148 4.5115 15.3624 4.45577C15.0542 4.12819 14.9886 4.20893 14.9756 4.16144C14.9527 4.07807 14.0787 3.99357 13.9472 3.84728C13.8157 3.70098 13.046 3.90344 13.046 3.90344H11.0447L11.3064 2.74146L13.1156 2.83309L15.0859 3.64654L16 4.84225C16 4.84225 15.8174 4.98575 15.6705 4.9289Z" fill="url(#paint0_linear_48_83643)"/>
<path fill-rule="evenodd" clip-rule="evenodd" d="M14.6519 4.69906C14.629 4.58536 14.492 4.43537 14.2296 4.36958C13.9673 4.3038 13.6273 4.25783 13.6273 4.25783L13.1791 4.08227C13.1791 4.08227 12.7204 3.51479 12.4014 3.48996C12.0823 3.46512 11.1668 3.48996 11.1668 3.48996L11.0443 4.14337C11.0443 4.14337 12.6464 4.69266 12.8273 4.68392C13.0082 4.67518 13.8401 4.79687 13.9249 4.84036C14.0097 4.88385 14.5057 5.02983 14.578 4.95107C14.6503 4.87231 14.6747 4.81277 14.6519 4.69906Z" fill="url(#paint1_linear_48_83643)"/>
<path fill-rule="evenodd" clip-rule="evenodd" d="M11.4141 2.70621L11.0482 4.21517C11.0482 4.21517 9.2108 4.24322 7.96272 4.45222C6.71465 4.66122 5.73067 5.10562 5.73067 5.10562L3.33995 2.32959C3.33995 2.32959 6.13514 1.91327 7.96272 2.02282C9.79031 2.13237 11.4141 2.70621 11.4141 2.70621Z" fill="url(#paint2_linear_48_83643)"/>
<path fill-rule="evenodd" clip-rule="evenodd" d="M5.7627 5.40561C5.7627 5.40561 5.4958 3.11667 4.44836 2.59276C3.40091 2.06886 2.25437 2.59276 2.25437 2.59276C2.25437 2.59276 1.45698 3.62958 2.25437 5.08622C3.05176 6.54286 5.7627 5.40561 5.7627 5.40561Z" fill="url(#paint3_linear_48_83643)"/>
<path fill-rule="evenodd" clip-rule="evenodd" d="M15.4357 15.3625L15.5175 15.1575L15.4766 14.6988C15.4766 14.6988 15.3223 14.699 15.2701 14.8386C15.2178 14.9782 15.1734 15.3275 15.1734 15.3275C15.1734 15.3275 14.8488 15.691 14.826 15.9008C14.8031 16.1107 15.0416 15.9823 15.0416 15.9823L15.3248 15.71L15.4357 15.3625Z" fill="#C09F86"/>
<path fill-rule="evenodd" clip-rule="evenodd" d="M14.9294 15.5882V15.1887L14.7754 14.6216C14.7754 14.6216 14.5087 14.5444 14.5405 14.9626C14.5724 15.3808 14.6042 15.6312 14.6042 15.6312L14.25 16.0315L14.4096 16.2803L14.9101 16.0643L14.9294 15.5882Z" fill="#B3947F"/>
<path fill-rule="evenodd" clip-rule="evenodd" d="M15.6705 15.0711C15.5235 15.1279 15.4148 15.4885 15.3624 15.5442C15.0542 15.8718 14.9886 15.7911 14.9756 15.8386C14.9527 15.9219 14.0787 16.0064 13.9472 16.1527C13.8157 16.299 13.046 16.0966 13.046 16.0966H11.0447L11.3064 17.2585L13.1156 17.1669L15.0859 16.3535L16 15.1577C16 15.1577 15.8174 15.0142 15.6705 15.0711Z" fill="url(#paint4_linear_48_83643)"/>
<path fill-rule="evenodd" clip-rule="evenodd" d="M14.6519 15.3009C14.629 15.4146 14.492 15.5646 14.2296 15.6304C13.9673 15.6962 13.6273 15.7422 13.6273 15.7422L13.1791 15.9177C13.1791 15.9177 12.7204 16.4852 12.4014 16.51C12.0823 16.5349 11.1668 16.51 11.1668 16.51L11.0443 15.8566C11.0443 15.8566 12.6464 15.3073 12.8273 15.3161C13.0082 15.3248 13.8401 15.2031 13.9249 15.1596C14.0097 15.1162 14.5057 14.9702 14.578 15.0489C14.6503 15.1277 14.6747 15.1872 14.6519 15.3009Z" fill="url(#paint5_linear_48_83643)"/>
<path fill-rule="evenodd" clip-rule="evenodd" d="M11.4141 17.2938L11.0482 15.7848C11.0482 15.7848 9.2108 15.7568 7.96272 15.5478C6.71465 15.3388 5.73067 14.8944 5.73067 14.8944L3.33995 17.6704C3.33995 17.6704 6.13514 18.0867 7.96272 17.9772C9.79031 17.8676 11.4141 17.2938 11.4141 17.2938Z" fill="url(#paint6_linear_48_83643)"/>
<path fill-rule="evenodd" clip-rule="evenodd" d="M5.7627 14.5944C5.7627 14.5944 5.4958 16.8833 4.44836 17.4072C3.40091 17.9311 2.25437 17.4072 2.25437 17.4072C2.25437 17.4072 1.45698 16.3704 2.25437 14.9138C3.05176 13.4571 5.7627 14.5944 5.7627 14.5944Z" fill="url(#paint7_linear_48_83643)"/>
<ellipse cx="8.07439" cy="7.16129" rx="1.58586" ry="2.14436" transform="rotate(90 8.07439 7.16129)" fill="#2E2E2E"/>
<ellipse rx="1.58586" ry="2.14436" transform="matrix(0 -1 -1 0 8.07439 13.2891)" fill="#2E2E2E"/>
<path d="M4.15752 14.6621C3.39125 14.6621 2.62409 14.2537 2.01513 13.4481C1.40574 12.6421 0.999607 11.4836 0.999607 10.1621C0.999607 8.84064 1.40574 7.68216 2.01513 6.87607C2.62409 6.07056 3.39125 5.66211 4.15752 5.66211C4.92378 5.66211 5.69095 6.07056 6.2999 6.87607C6.9093 7.68216 7.31543 8.84064 7.31543 10.1621C7.31543 11.4836 6.9093 12.6421 6.2999 13.4481C5.69095 14.2537 4.92378 14.6621 4.15752 14.6621Z" fill="#D8D8D8" stroke="#304366" stroke-width="2"/>
<ellipse cx="7.364" cy="10.2662" rx="2.55602" ry="2.85475" transform="rotate(90 7.364 10.2662)" fill="url(#paint8_linear_48_83643)"/>
<path d="M3.76376 12.3407C3.5096 12.3407 3.21518 12.1836 2.96082 11.7965C2.70922 11.4137 2.53729 10.8553 2.53729 10.2133C2.53729 9.57128 2.70922 9.01295 2.96082 8.63005C3.21518 8.24298 3.5096 8.08594 3.76376 8.08594C4.01793 8.08594 4.31235 8.24298 4.5667 8.63005C4.81831 9.01295 4.99023 9.57128 4.99023 10.2133C4.99023 10.8553 4.81831 11.4137 4.5667 11.7965C4.31235 12.1836 4.01793 12.3407 3.76376 12.3407Z" fill="#D8D8D8" stroke="#979797"/>
<ellipse cx="5.32551" cy="10.254" rx="2.61138" ry="2.98992" transform="rotate(90 5.32551 10.254)" fill="url(#paint9_linear_48_83643)"/>
<g filter="url(#filter0_i_48_83643)">
<path d="M24 18L24 2.00014L40 2.00014V18L24 18Z" fill="#3CC26F"/>
</g>
<path d="M23 18V19H24H40H41V18V2.00014V1.00014H40H24H23V2.00014V18Z" stroke="#B7E8C5" stroke-width="2"/>
<g filter="url(#filter1_i_48_83643)">
<path d="M36 17.9998V1.9999H40V17.9998L36 17.9998Z" fill="#0E8F48"/>
</g>
<path fill-rule="evenodd" clip-rule="evenodd" d="M37.333 3.3335V16.6667L37.9997 16.1112L38.0022 13.3439L39.333 12.2223V7.7779L38.0022 6.6668V3.88905L37.333 3.3335Z" fill="#E6F5ED"/>
<defs>
<filter id="filter0_i_48_83643" x="22" y="0.000244141" width="20" height="19.9998" filterUnits="userSpaceOnUse" color-interpolation-filters="sRGB">
<feFlood flood-opacity="0" result="BackgroundImageFix"/>
<feBlend mode="normal" in="SourceGraphic" in2="BackgroundImageFix" result="shape"/>
<feColorMatrix in="SourceAlpha" type="matrix" values="0 0 0 0 0 0 0 0 0 0 0 0 0 0 0 0 0 0 127 0" result="hardAlpha"/>
<feOffset/>
<feGaussianBlur stdDeviation="4"/>
<feComposite in2="hardAlpha" operator="arithmetic" k2="-1" k3="1"/>
<feColorMatrix type="matrix" values="0 0 0 0 0.0196078 0 0 0 0 0.411765 0 0 0 0 0.207843 0 0 0 1 0"/>
<feBlend mode="normal" in2="shape" result="effect1_innerShadow_48_83643"/>
</filter>
<filter id="filter1_i_48_83643" x="36" y="2" width="4" height="15.9998" filterUnits="userSpaceOnUse" color-interpolation-filters="sRGB">
<feFlood flood-opacity="0" result="BackgroundImageFix"/>
<feBlend mode="normal" in="SourceGraphic" in2="BackgroundImageFix" result="shape"/>
<feColorMatrix in="SourceAlpha" type="matrix" values="0 0 0 0 0 0 0 0 0 0 0 0 0 0 0 0 0 0 127 0" result="hardAlpha"/>
<feOffset/>
<feGaussianBlur stdDeviation="1"/>
<feComposite in2="hardAlpha" operator="arithmetic" k2="-1" k3="1"/>
<feColorMatrix type="matrix" values="0 0 0 0 0.0196078 0 0 0 0 0.411765 0 0 0 0 0.207843 0 0 0 1 0"/>
<feBlend mode="normal" in2="shape" result="effect1_innerShadow_48_83643"/>
</filter>
<linearGradient id="paint0_linear_48_83643" x1="16" y1="2.74146" x2="11.0447" y2="2.74146" gradientUnits="userSpaceOnUse">
<stop stop-color="#DBB79B"/>
<stop offset="1" stop-color="#C9A990"/>
</linearGradient>
<linearGradient id="paint1_linear_48_83643" x1="14.6602" y1="3.47754" x2="11.0443" y2="3.47754" gradientUnits="userSpaceOnUse">
<stop stop-color="#DBB79B"/>
<stop offset="1" stop-color="#C9A990"/>
</linearGradient>
<linearGradient id="paint2_linear_48_83643" x1="10.6699" y1="2.14312" x2="3.33995" y2="2.14312" gradientUnits="userSpaceOnUse">
<stop stop-color="white"/>
<stop offset="1" stop-color="#D8D8D8"/>
</linearGradient>
<linearGradient id="paint3_linear_48_83643" x1="2.281" y1="1.75902" x2="1.20997" y2="4.6215" gradientUnits="userSpaceOnUse">
<stop stop-color="white"/>
<stop offset="1" stop-color="#ECECEC"/>
</linearGradient>
<linearGradient id="paint4_linear_48_83643" x1="16" y1="17.2585" x2="11.0447" y2="17.2585" gradientUnits="userSpaceOnUse">
<stop stop-color="#DBB79B"/>
<stop offset="1" stop-color="#C9A990"/>
</linearGradient>
<linearGradient id="paint5_linear_48_83643" x1="14.6602" y1="16.5225" x2="11.0443" y2="16.5225" gradientUnits="userSpaceOnUse">
<stop stop-color="#DBB79B"/>
<stop offset="1" stop-color="#C9A990"/>
</linearGradient>
<linearGradient id="paint6_linear_48_83643" x1="10.6699" y1="17.8569" x2="3.33995" y2="17.8569" gradientUnits="userSpaceOnUse">
<stop stop-color="white"/>
<stop offset="1" stop-color="#D8D8D8"/>
</linearGradient>
<linearGradient id="paint7_linear_48_83643" x1="2.281" y1="18.241" x2="1.20997" y2="15.3785" gradientUnits="userSpaceOnUse">
<stop stop-color="white"/>
<stop offset="1" stop-color="#ECECEC"/>
</linearGradient>
<linearGradient id="paint8_linear_48_83643" x1="4.80798" y1="7.41147" x2="4.80798" y2="13.121" gradientUnits="userSpaceOnUse">
<stop stop-color="#5D739E"/>
<stop offset="1" stop-color="#304369"/>
</linearGradient>
<linearGradient id="paint9_linear_48_83643" x1="2.71413" y1="7.26404" x2="2.71413" y2="13.2439" gradientUnits="userSpaceOnUse">
<stop stop-color="#6C7FA8"/>
<stop offset="1" stop-color="#324569"/>
</linearGradient>
</defs>
</svg>
