<svg width="27" height="35" viewBox="0 0 27 35" fill="none" xmlns="http://www.w3.org/2000/svg">
  <path d="M19.7436 0L7.17949 0C3.21437 0 0 3.21437 0 7.17949L0 27.8205C0 31.7856 3.21437 35 7.17949 35H19.7436C23.7087 35 26.9231 31.7856 26.9231 27.8205V7.17949C26.9231 3.21437 23.7087 0 19.7436 0Z" fill="url(#paint0_linear_125_2786)"/>
  <path d="M4.48718 32.1636H5.47494V30.5773L6.59441 29.2572L8.33945 32.1636H9.42599L7.16511 28.5584L9.16258 26.1401H8.0541L5.49689 29.3238H5.47494V23.3335H4.48718V32.1636ZM10.5427 32.1636H11.5415V26.1401H10.5427V32.1636ZM11.0476 24.8976C11.4427 24.8976 11.739 24.6203 11.739 24.2431C11.739 23.8327 11.4427 23.5886 11.0476 23.5886C10.6525 23.5886 10.3562 23.8327 10.3562 24.2431C10.3562 24.6203 10.6525 24.8976 11.0476 24.8976ZM14.8493 32.1636H16.0127L18.1309 26.1401H17.1431L16.0127 29.5678C15.8371 30.1558 15.6395 30.777 15.4639 31.3428H15.42C15.2334 30.777 15.0468 30.1558 14.8603 29.5678L13.7408 26.1401H12.6982L14.8493 32.1636ZM20.414 32.3079C21.1493 32.3079 21.8188 31.9196 22.3895 31.4426H22.4224L22.5102 32.1636H23.3333V28.4585C23.3333 26.972 22.7187 25.9848 21.27 25.9848C20.3152 25.9848 19.4701 26.4174 18.9213 26.7724L19.3164 27.4712C19.7884 27.1495 20.414 26.8278 21.1054 26.8278C22.0822 26.8278 22.3346 27.5711 22.3346 28.3476C19.7993 28.636 18.6689 29.2905 18.6689 30.5995C18.6689 31.6866 19.4152 32.3079 20.414 32.3079ZM20.6993 31.4981C20.1067 31.4981 19.6457 31.2207 19.6457 30.533C19.6457 29.7564 20.3262 29.2572 22.3346 29.0132V30.6993C21.7529 31.2207 21.281 31.4981 20.6993 31.4981Z" fill="#333333"/>
  <path d="M23.3333 12.5642C23.3333 7.11214 18.9136 2.69238 13.4615 2.69238C8.00947 2.69238 3.58972 7.11214 3.58972 12.5642C3.58972 18.0162 8.00947 22.436 13.4615 22.436C18.9136 22.436 23.3333 18.0162 23.3333 12.5642Z" fill="url(#paint1_linear_125_2786)"/>
  <defs>
  <linearGradient id="paint0_linear_125_2786" x1="0" y1="0" x2="0" y2="35" gradientUnits="userSpaceOnUse">
  <stop stop-color="#C5C5C5"/>
  <stop offset="0.20206" stop-color="#EAEBEC"/>
  <stop offset="0.812555" stop-color="#EAEBEC"/>
  <stop offset="1" stop-color="#BDBDBD"/>
  </linearGradient>
  <linearGradient id="paint1_linear_125_2786" x1="14.5" y1="22.5" x2="14.5" y2="3" gradientUnits="userSpaceOnUse">
  <stop stop-color="#BEBEBE"/>
  <stop offset="0.591292" stop-color="#E8E8E8"/>
  <stop offset="0.776511" stop-color="#E8E8E8"/>
  <stop offset="1" stop-color="#BEBEBE"/>
  </linearGradient>
  </defs>
  </svg>
  