<svg width="50" height="50" viewBox="0 0 50 50" fill="none" xmlns="http://www.w3.org/2000/svg">
<g opacity="0.460751">
<path fill-rule="evenodd" clip-rule="evenodd" d="M10.3213 45.3459V6.62012H37.2178V45.3459H10.3213Z" fill="#D8D8D8"/>
</g>
<path fill-rule="evenodd" clip-rule="evenodd" d="M11.6092 46.7802C10.6007 46.3317 10 45.3676 10 44.3226V6.78911C10 5.88296 10.4508 5.02877 11.2608 4.53231C13.7068 3.0332 19.3534 0 25 0C30.6466 0 36.2932 3.0332 38.7392 4.53231C39.5492 5.02877 40 5.88295 40 6.78911V44.3226C40 45.3676 39.3993 46.3317 38.3908 46.7802C35.7863 47.9384 30.3932 50 25 50C19.6068 50 14.2137 47.9384 11.6092 46.7802Z" fill="url(#paint0_linear_47_86618)"/>
<path d="M32.5 46.4814H18.5V34.4814H32.5V46.4814Z" fill="white" stroke="#E8E8E8"/>
<path d="M18.2754 7.28764V27.6187H30.6892V7.28764H18.2754Z" fill="#AFAFAF"/>
<path d="M18.2754 7.28764V27.6187H30.6892V7.28764H18.2754Z" fill="#AFAFAF"/>
<path d="M35.5 5.88224V26.6782H14.5V5.8371C14.5 5.70032 14.5766 5.56003 14.7385 5.47969L14.7386 5.47967C15.4851 5.10913 16.9877 4.40579 18.7772 3.79599C20.5732 3.18401 22.6239 2.67822 24.4762 2.67822C26.3428 2.67822 28.5868 3.19122 30.606 3.81042C32.6164 4.42692 34.3643 5.13602 35.2262 5.5034L35.2262 5.50342C35.412 5.58258 35.5 5.73584 35.5 5.88224Z" fill="url(#paint1_linear_47_86618)" stroke="#E8E8E8"/>
<path d="M12.0693 26.1399V34.8531C12.0693 35.3878 12.5325 35.8213 13.1038 35.8213H36.8969C37.4683 35.8213 37.9314 35.3878 37.9314 34.8531V26.1399C37.9314 25.6052 37.4683 25.1717 36.8969 25.1717H13.1038C12.5325 25.1717 12.0693 25.6052 12.0693 26.1399Z" fill="#D8D8D8"/>
<path d="M12.0693 26.1399V34.8531C12.0693 35.3878 12.5325 35.8213 13.1038 35.8213H36.8969C37.4683 35.8213 37.9314 35.3878 37.9314 34.8531V26.1399C37.9314 25.6052 37.4683 25.1717 36.8969 25.1717H13.1038C12.5325 25.1717 12.0693 25.6052 12.0693 26.1399Z" fill="url(#paint2_linear_47_86618)"/>
<defs>
<linearGradient id="paint0_linear_47_86618" x1="10" y1="50" x2="40" y2="50" gradientUnits="userSpaceOnUse">
<stop stop-color="#1890FF"/>
<stop offset="0.20206" stop-color="#146FC3"/>
<stop offset="0.812555" stop-color="#146FC4"/>
<stop offset="1" stop-color="#1890FF"/>
</linearGradient>
<linearGradient id="paint1_linear_47_86618" x1="14" y1="27.1782" x2="36" y2="27.1782" gradientUnits="userSpaceOnUse">
<stop stop-color="white"/>
<stop offset="1" stop-color="white"/>
</linearGradient>
<linearGradient id="paint2_linear_47_86618" x1="37.9314" y1="35.8213" x2="37.9314" y2="25.1717" gradientUnits="userSpaceOnUse">
<stop stop-color="#61CF87"/>
<stop offset="0.0001" stop-color="#FF2621"/>
<stop offset="0.244318" stop-color="#FF312D"/>
<stop offset="0.734457" stop-color="#FF7875"/>
<stop offset="1" stop-color="#FF1914"/>
</linearGradient>
</defs>
</svg>
